<svg class="border shadow-md" viewBox="0 0 1126.4 633.6" style="width: 1126.4px; height: 633.6px;" xmlns="http://www.w3.org/2000/svg" preserveAspectRatio="none"><rect class="bg" id="bg" x="0" y="0" width="1126.4" height="633.6" fill="#ffffff"/><path d="M -10 -48.73846153846154 S -719.00 -84.74&#10;                0.00 -48.74 417.40 -88.74&#10;                1126.40 -48.74 1689.60 -79.74&#10;                2252.80 -48.74 V 633.60 H 0 V -48.74 Z" fill="#1C1E24"/><path d="M -10 0 S -563.20 -24.37&#10;                0.00 0.00 563.20 -24.37&#10;                1126.40 0.00 1470.80 -43.00&#10;                2252.80 0.00 V 633.60 H 0 V 0.00 Z" fill="#212632"/><path d="M -10 48.73846153846154 S -563.20 73.74&#10;                0.00 48.74 601.00 73.11&#10;                1126.40 48.74 1689.60 73.11&#10;                2252.80 48.74 V 633.60 H 0 V 48.74 Z" fill="#262e40"/><path d="M -10 97.47692307692309 S -635.00 52.48&#10;                0.00 97.48 435.40 70.48&#10;                1126.40 97.48 1689.60 73.11&#10;                2252.80 97.48 V 633.60 H 0 V 97.48 Z" fill="#2b364e"/><path d="M -10 146.21538461538464 S -256.40 188.22&#10;                0.00 146.22 736.00 170.58&#10;                1126.40 146.22 1689.60 174.22&#10;                2252.80 146.22 V 633.60 H 0 V 146.22 Z" fill="#303e5c"/><path d="M -10 194.95384615384617 S -563.20 163.95&#10;                0.00 194.95 358.40 164.95&#10;                1126.40 194.95 1689.60 162.95&#10;                2252.80 194.95 V 633.60 H 0 V 194.95 Z" fill="#35466a"/><path d="M -10 243.6923076923077 S -563.20 274.69&#10;                0.00 243.69 710.00 283.69&#10;                1126.40 243.69 1689.60 285.69&#10;                2252.80 243.69 V 633.60 H 0 V 243.69 Z" fill="#3a4e78"/><path d="M -10 292.4307692307693 S -563.20 250.43&#10;                0.00 292.43 128.40 249.43&#10;                1126.40 292.43 1607.80 266.43&#10;                2252.80 292.43 V 633.60 H 0 V 292.43 Z" fill="#3f5686"/><path d="M -10 341.1692307692308 S -563.20 367.17&#10;                0.00 341.17 563.20 382.17&#10;                1126.40 341.17 1689.60 376.17&#10;                2252.80 341.17 V 633.60 H 0 V 341.17 Z" fill="#445e94"/><path d="M -10 389.90769230769234 S -700.00 365.54&#10;                0.00 389.91 323.40 363.91&#10;                1126.40 389.91 1560.80 365.54&#10;                2252.80 389.91 V 633.60 H 0 V 389.91 Z" fill="#4966a2"/><path d="M -10 438.6461538461539 S -563.20 477.65&#10;                0.00 438.65 563.20 463.02&#10;                1126.40 438.65 1689.60 474.65&#10;                2252.80 438.65 V 633.60 H 0 V 438.65 Z" fill="#4e6eb0"/><path d="M -10 487.3846153846154 S -563.20 463.02&#10;                0.00 487.38 563.20 460.38&#10;                1126.40 487.38 1293.80 463.02&#10;                2252.80 487.38 V 633.60 H 0 V 487.38 Z" fill="#5376be"/><path d="M -10 536.123076923077 S -319.40 560.49&#10;                0.00 536.12 563.20 560.49&#10;                1126.40 536.12 1689.60 560.49&#10;                2252.80 536.12 V 633.60 H 0 V 536.12 Z" fill="#587ecc"/><path d="M -10 584.8615384615385 S -563.20 560.49&#10;                0.00 584.86 563.20 560.49&#10;                1126.40 584.86 1540.80 560.49&#10;                2252.80 584.86 V 633.60 H 0 V 584.86 Z" fill="#5d86da"/></svg>