<svg class="border shadow-md" viewBox="0 0 1351.68 760.32" style="width: 1351.68px; height: 760.32px;" xmlns="http://www.w3.org/2000/svg" preserveAspectRatio="none"><rect class="bg" id="bg" x="0" y="0" width="1351.68" height="760.32" fill="#704848"/><path d="M -10 -50.688 S -675.84 -76.03&#10;                0.00 -50.69 675.84 -84.69&#10;                1351.68 -50.69 2000.36 -76.03&#10;                2703.36 -50.69 V 760.32 H 0 V -50.69 Z" fill="#0D0E0F"/><path d="M -10 0 S -675.84 -33.00&#10;                0.00 0.00 675.84 -25.34&#10;                1351.68 0.00 2027.52 -25.34&#10;                2703.36 0.00 V 760.32 H 0 V 0.00 Z" fill="#13161c"/><path d="M -10 50.688 S -675.84 83.69&#10;                0.00 50.69 675.84 76.03&#10;                1351.68 50.69 2340.68 93.69&#10;                2703.36 50.69 V 760.32 H 0 V 50.69 Z" fill="#191e29"/><path d="M -10 101.376 S -675.84 76.03&#10;                0.00 101.38 441.68 76.03&#10;                1351.68 101.38 2027.52 51.38&#10;                2703.36 101.38 V 760.32 H 0 V 101.38 Z" fill="#1f2636"/><path d="M -10 152.06400000000002 S -675.84 194.06&#10;                0.00 152.06 675.84 177.41&#10;                1351.68 152.06 2027.52 179.06&#10;                2703.36 152.06 V 760.32 H 0 V 152.06 Z" fill="#252e43"/><path d="M -10 202.752 S -675.84 177.41&#10;                0.00 202.75 577.68 168.75&#10;                1351.68 202.75 2027.52 177.41&#10;                2703.36 202.75 V 760.32 H 0 V 202.75 Z" fill="#2b3650"/><path d="M -10 253.44 S -675.84 302.44&#10;                0.00 253.44 675.84 278.78&#10;                1351.68 253.44 2027.52 282.44&#10;                2703.36 253.44 V 760.32 H 0 V 253.44 Z" fill="#313e5d"/><path d="M -10 304.12800000000004 S -675.84 278.78&#10;                0.00 304.13 675.84 278.78&#10;                1351.68 304.13 2022.36 256.13&#10;                2703.36 304.13 V 760.32 H 0 V 304.13 Z" fill="#37466a"/><path d="M -10 354.81600000000003 S -498.68 380.16&#10;                0.00 354.82 675.84 380.16&#10;                1351.68 354.82 2027.52 380.16&#10;                2703.36 354.82 V 760.32 H 0 V 354.82 Z" fill="#3d4e77"/><path d="M -10 405.504 S -675.84 380.16&#10;                0.00 405.50 675.84 380.16&#10;                1351.68 405.50 1999.36 365.50&#10;                2703.36 405.50 V 760.32 H 0 V 405.50 Z" fill="#435684"/><path d="M -10 456.192 S -675.84 487.19&#10;                0.00 456.19 797.00 481.54&#10;                1351.68 456.19 2027.52 481.54&#10;                2703.36 456.19 V 760.32 H 0 V 456.19 Z" fill="#495e91"/><path d="M -10 506.88 S -675.84 481.54&#10;                0.00 506.88 675.84 457.88&#10;                1351.68 506.88 2027.52 481.54&#10;                2703.36 506.88 V 760.32 H 0 V 506.88 Z" fill="#4f669e"/><path d="M -10 557.568 S -675.84 590.57&#10;                0.00 557.57 675.84 582.91&#10;                1351.68 557.57 2027.52 582.91&#10;                2703.36 557.57 V 760.32 H 0 V 557.57 Z" fill="#556eab"/><path d="M -10 608.2560000000001 S -675.84 574.26&#10;                0.00 608.26 675.84 558.26&#10;                1351.68 608.26 2002.36 582.91&#10;                2703.36 608.26 V 760.32 H 0 V 608.26 Z" fill="#5b76b8"/><path d="M -10 658.9440000000001 S -675.84 690.94&#10;                0.00 658.94 675.84 688.94&#10;                1351.68 658.94 2027.52 690.94&#10;                2703.36 658.94 V 760.32 H 0 V 658.94 Z" fill="#617ec5"/><path d="M -10 709.6320000000001 S -675.84 684.29&#10;                0.00 709.63 675.84 684.29&#10;                1351.68 709.63 2027.52 661.63&#10;                2703.36 709.63 V 760.32 H 0 V 709.63 Z" fill="#6786d2"/></svg>