<svg class="border shadow-md" viewBox="0 0 364.32 647.68" style="width: 364.32px; height: 647.68px;" xmlns="http://www.w3.org/2000/svg" preserveAspectRatio="none"><rect class="bg" id="bg" x="0" y="0" width="364.32" height="647.68" fill="#ffffff"/><path d="M -10 -26.986666666666665 S -182.16 -40.48&#10;                0.00 -26.99 165.32 -40.48&#10;                364.32 -26.99 546.48 -40.99&#10;                728.64 -26.99 V 647.68 H 0 V -26.99 Z" fill="#0D0E0F"/><path d="M -10 0 S -182.16 -13.49&#10;                0.00 0.00 182.16 -13.49&#10;                364.32 0.00 546.48 -13.49&#10;                728.64 0.00 V 647.68 H 0 V 0.00 Z" fill="#101317"/><path d="M -10 26.986666666666665 S -182.16 45.99&#10;                0.00 26.99 228.00 49.99&#10;                364.32 26.99 546.48 40.48&#10;                728.64 26.99 V 647.68 H 0 V 26.99 Z" fill="#13181f"/><path d="M -10 53.97333333333333 S -182.16 30.97&#10;                0.00 53.97 182.16 40.48&#10;                364.32 53.97 546.48 40.48&#10;                728.64 53.97 V 647.68 H 0 V 53.97 Z" fill="#161d27"/><path d="M -10 80.96 S -182.16 94.96&#10;                0.00 80.96 331.00 103.96&#10;                364.32 80.96 546.48 94.45&#10;                728.64 80.96 V 647.68 H 0 V 80.96 Z" fill="#19222f"/><path d="M -10 107.94666666666666 S -182.16 85.95&#10;                0.00 107.95 182.16 94.45&#10;                364.32 107.95 546.48 87.95&#10;                728.64 107.95 V 647.68 H 0 V 107.95 Z" fill="#1c2737"/><path d="M -10 134.93333333333334 S -182.16 150.93&#10;                0.00 134.93 325.00 160.93&#10;                364.32 134.93 546.48 148.43&#10;                728.64 134.93 V 647.68 H 0 V 134.93 Z" fill="#1f2c3f"/><path d="M -10 161.92 S -194.00 139.92&#10;                0.00 161.92 182.16 146.92&#10;                364.32 161.92 546.48 148.43&#10;                728.64 161.92 V 647.68 H 0 V 161.92 Z" fill="#223147"/><path d="M -10 188.90666666666664 S -110.32 202.40&#10;                0.00 188.91 182.16 213.91&#10;                364.32 188.91 588.32 204.91&#10;                728.64 188.91 V 647.68 H 0 V 188.91 Z" fill="#25364f"/><path d="M -10 215.89333333333332 S -182.16 202.40&#10;                0.00 215.89 104.32 195.89&#10;                364.32 215.89 546.48 201.89&#10;                728.64 215.89 V 647.68 H 0 V 215.89 Z" fill="#283b57"/><path d="M -10 242.88 S -122.32 258.88&#10;                0.00 242.88 182.16 256.37&#10;                364.32 242.88 562.32 256.37&#10;                728.64 242.88 V 647.68 H 0 V 242.88 Z" fill="#2b405f"/><path d="M -10 269.8666666666667 S -182.16 256.37&#10;                0.00 269.87 172.32 252.87&#10;                364.32 269.87 546.48 251.87&#10;                728.64 269.87 V 647.68 H 0 V 269.87 Z" fill="#2e4567"/><path d="M -10 296.8533333333333 S -117.32 314.85&#10;                0.00 296.85 182.16 310.35&#10;                364.32 296.85 720.32 310.35&#10;                728.64 296.85 V 647.68 H 0 V 296.85 Z" fill="#314a6f"/><path d="M -10 323.84 S -182.16 298.84&#10;                0.00 323.84 182.16 310.35&#10;                364.32 323.84 546.48 310.35&#10;                728.64 323.84 V 647.68 H 0 V 323.84 Z" fill="#344f77"/><path d="M -10 350.82666666666665 S -182.16 364.32&#10;                0.00 350.83 182.16 364.32&#10;                364.32 350.83 582.32 366.83&#10;                728.64 350.83 V 647.68 H 0 V 350.83 Z" fill="#37547f"/><path d="M -10 377.8133333333333 S -182.16 358.81&#10;                0.00 377.81 149.32 357.81&#10;                364.32 377.81 546.48 364.32&#10;                728.64 377.81 V 647.68 H 0 V 377.81 Z" fill="#3a5987"/><path d="M -10 404.79999999999995 S -86.32 418.29&#10;                0.00 404.80 182.16 418.29&#10;                364.32 404.80 546.48 430.80&#10;                728.64 404.80 V 647.68 H 0 V 404.80 Z" fill="#3d5e8f"/><path d="M -10 431.78666666666663 S -260.00 418.29&#10;                0.00 431.79 26.32 418.29&#10;                364.32 431.79 369.64 414.79&#10;                728.64 431.79 V 647.68 H 0 V 431.79 Z" fill="#406397"/><path d="M -10 458.7733333333333 S -138.32 482.77&#10;                0.00 458.77 182.16 472.27&#10;                364.32 458.77 581.32 472.27&#10;                728.64 458.77 V 647.68 H 0 V 458.77 Z" fill="#43689f"/><path d="M -10 485.76 S -182.16 461.76&#10;                0.00 485.76 130.32 472.27&#10;                364.32 485.76 546.48 472.27&#10;                728.64 485.76 V 647.68 H 0 V 485.76 Z" fill="#466da7"/><path d="M -10 512.7466666666667 S -182.16 526.24&#10;                0.00 512.75 208.00 534.75&#10;                364.32 512.75 551.32 526.24&#10;                728.64 512.75 V 647.68 H 0 V 512.75 Z" fill="#4972af"/><path d="M -10 539.7333333333333 S -182.16 525.73&#10;                0.00 539.73 182.16 526.24&#10;                364.32 539.73 450.64 521.73&#10;                728.64 539.73 V 647.68 H 0 V 539.73 Z" fill="#4c77b7"/><path d="M -10 566.7199999999999 S -130.32 580.21&#10;                0.00 566.72 182.16 584.72&#10;                364.32 566.72 610.32 580.21&#10;                728.64 566.72 V 647.68 H 0 V 566.72 Z" fill="#4f7cbf"/><path d="M -10 593.7066666666666 S -238.00 570.71&#10;                0.00 593.71 182.16 579.71&#10;                364.32 593.71 471.64 568.71&#10;                728.64 593.71 V 647.68 H 0 V 593.71 Z" fill="#5281c7"/><path d="M -10 620.6933333333333 S -182.16 634.19&#10;                0.00 620.69 182.16 634.69&#10;                364.32 620.69 718.32 634.19&#10;                728.64 620.69 V 647.68 H 0 V 620.69 Z" fill="#5586cf"/></svg>