<?xml version="1.0" encoding="utf-8"?>
<!-- Generator: Adobe Illustrator 23.0.1, SVG Export Plug-In . SVG Version: 6.00 Build 0)  -->
<svg version="1.1" id="Layer_1" xmlns="http://www.w3.org/2000/svg" xmlns:xlink="http://www.w3.org/1999/xlink" x="0px" y="0px"
	 viewBox="0 0 74.8 92.9" style="enable-background:new 0 0 74.8 92.9;" xml:space="preserve">
<style type="text/css">
	.st0{fill:#D9D8D7;}
	.st1{opacity:0.8;fill:#4899C3;}
	.st2{fill:#4899C3;}
	.st3{fill:#FFFFFF;}
</style>
<g>
	<path class="st0" d="M28.2,3.4l-0.1-0.1L28.2,3.4z"/>
	<path class="st1" d="M2.2,14.6c0,0.2,0,0.3,0,0.5l0,0l0,0l3,67.5c0.2,5.2,5,9.1,10.3,8.4c1.7-0.2,2.9-1.5,3-3.2l3.1-63.5L7.2,12.6
		C5.2,11,2.4,12.3,2.2,14.6z"/>
	<path class="st0" d="M2.3,13.5c-0.1,0.4-0.1,0.7-0.1,1.1l0,0C2.2,14.2,2.2,13.9,2.3,13.5z"/>
	<path class="st2" d="M65.1,59.7l-14.7-12c-10.1,2-19.9,4.1-21.5,5.1c-1.4,0.9-2,1.5-2.4,2.6c-0.2,0.5-0.3,1-0.3,1.5
		c-0.2,11.2,25.7,7.3,36.4,7.9c0.5,0,1,0,1.5-0.1C66.2,64.1,67,61.3,65.1,59.7z"/>
	<path class="st2" d="M70.9,38.2L28.2,3.4l-0.1-0.1l0,0c-1.5-1.2-3.7-1.5-5.5-0.7L5.2,10.1c-1.5,0.7-2.6,1.9-2.9,3.5
		c-0.1,0.3-0.1,0.6-0.1,1c0.2-2.3,3-3.6,5-2l14.4,11.8l28.7,23.4l14.7,12c1.9,1.5,1.2,4.4-1,5.1c-0.1,0-0.1,0-0.2,0.1
		c2-0.4,3.6-1.8,4.1-3.7l4.7-17.8C73.1,41.4,72.4,39.5,70.9,38.2z"/>
	<path class="st3" d="M63.9,64.8c-0.2,0-0.3,0.1-0.5,0.1C63.6,64.9,63.7,64.9,63.9,64.8z"/>
	<path class="st3" d="M2.2,14.6L2.2,14.6c0,0.1,0,0.3,0,0.5l0,0C2.2,14.9,2.2,14.8,2.2,14.6z"/>
</g>
</svg>
