<?xml version="1.0" encoding="utf-8"?>
<!-- Generator: Adobe Illustrator 23.0.1, SVG Export Plug-In . SVG Version: 6.00 Build 0)  -->
<svg version="1.1" id="Layer_1" xmlns="http://www.w3.org/2000/svg" xmlns:xlink="http://www.w3.org/1999/xlink" x="0px" y="0px"
	 viewBox="0 0 82 90" style="enable-background:new 0 0 82 90;" xml:space="preserve">
<style type="text/css">
	.st0{fill:#FFFFFF;}
	.st1{opacity:0.1;}
</style>
<g>
	<path class="st0" d="M34.1,0L34.1,0L34.1,0z"/>
	<path class="st1" d="M8.1,11.2c0,0.2,0,0.3,0,0.5l0,0l0,0l3,67.5c0.2,5.2,5,9.1,10.3,8.4c1.7-0.2,2.9-1.5,3-3.2l3.1-63.5L13.1,9.2
		C11.1,7.6,8.3,8.9,8.1,11.2z"/>
	<path class="st0" d="M8.2,10.1c-0.1,0.4-0.1,0.7-0.1,1.1l0,0C8.1,10.8,8.1,10.5,8.2,10.1z"/>
	<path class="st1" d="M71,56.3l-14.7-12c-10.1,2-19.9,4.1-21.5,5.1c-1.4,0.9-2,1.5-2.4,2.6c-0.2,0.5-0.3,1-0.3,1.5
		c-0.2,11.2,25.7,7.3,36.4,7.9c0.5,0,1,0,1.5-0.1C72.1,60.7,72.9,57.9,71,56.3z"/>
	<path class="st0" d="M76.8,34.8L34.1,0L34-0.1l0,0c-1.5-1.2-3.7-1.5-5.5-0.7L11.1,6.7c-1.5,0.7-2.6,1.9-2.9,3.5
		c-0.1,0.3-0.1,0.6-0.1,1c0.2-2.3,3-3.6,5-2L27.5,21l28.7,23.4l14.7,12c1.9,1.5,1.2,4.4-1,5.1c-0.1,0-0.1,0-0.2,0.1
		c2-0.4,3.6-1.8,4.1-3.7l4.7-17.8C79,38,78.3,36.1,76.8,34.8z"/>
	<path class="st0" d="M69.8,61.4c-0.2,0-0.3,0.1-0.5,0.1C69.5,61.5,69.6,61.5,69.8,61.4z"/>
	<path class="st0" d="M8.1,11.2L8.1,11.2c0,0.1,0,0.3,0,0.5l0,0C8.1,11.5,8.1,11.4,8.1,11.2z"/>
</g>
</svg>
