<?xml version="1.0" encoding="utf-8"?>
<!-- Generator: Adobe Illustrator 23.0.1, SVG Export Plug-In . SVG Version: 6.00 Build 0)  -->
<svg version="1.1" id="Layer_1" xmlns="http://www.w3.org/2000/svg" xmlns:xlink="http://www.w3.org/1999/xlink" x="0px" y="0px"
	 viewBox="0 0 361.7 112.4" style="enable-background:new 0 0 361.7 112.4;" xml:space="preserve">
<style type="text/css">
	.st0{opacity:0.8;}
	.st1{fill:#6D8EEE;}
</style>
<g class="st0">
	<path class="st1" d="M156,64.7h-8.9v21.2h-8.2c-3.4,0-6.2-2.8-6.2-6.2V26.9H156c14.4,0,21.6,8.2,21.6,18.9
		C177.6,55.6,171,64.7,156,64.7z M154.8,53.3c5.7,0,8.2-2.9,8.2-7.4s-2.5-7.4-8.2-7.4h-7.8v14.7C147.1,53.3,154.8,53.3,154.8,53.3z"
		/>
	<path class="st1" d="M209.2,26.9c14.4,0,21.6,8.3,21.6,18.5c0,7.4-4,14.3-13.1,17l13.6,23.3h-16.2l-12.2-22.2h-3.5v22.2h-6.4
		c-4.4,0-8-3.6-8-8V26.8L209.2,26.9L209.2,26.9z M208.3,38.8h-8.9v14.6h8.9c5.4,0,7.9-2.8,7.9-7.4C216.2,41.7,213.7,38.8,208.3,38.8
		z"/>
	<path class="st1" d="M267,26.3c14,0,24.6,7.9,27.9,20.6h-15.8c-2.5-5-6.9-7.6-12.3-7.6c-8.8,0-14.9,6.5-14.9,17s6.1,17,14.9,17
		c3.7,0,7-1.2,9.5-3.5c2.7-2.6,6.4-4,10.1-4h8.5C291.6,78.5,281,86.3,267,86.3c-17.4,0-29.6-12.3-29.6-30S249.6,26.3,267,26.3z"/>
	<path class="st1" d="M299.1,26.9h16.3l11.4,24.7l11.3-24.7h16.1l-20.4,39.4v19.5h-5.4c-4.9,0-8.9-4-8.9-8.9V66.3L299.1,26.9z"/>
</g>
<g class="st0">
	<path class="st1" d="M74.2,1.6H22c-11.4,0-20.4,9-20.4,20.4v70.6c0,10.4,8.4,19,19,19h18.2c40,0,72.5-32.6,72.5-72.5
		C111.4,18.2,94.8,1.6,74.2,1.6z M53.4,60.9c3.5-1.3,1.2-7.6-4.1-10.8c-3.1-1.8-7.3,0.4-7.3,4.1V85c0.2,4.9-4.1,8.8-9.2,7.8
		c-0.6,0-1-0.4-1.6-0.6l-2-1.2c-0.4-0.2-1-0.6-1.3-1c-1.2-1.6-1.8-3.4-1.8-5.1l0.2-59.8c0-4.3,3.5-7.8,7.8-7.8c2,0,3.9,0.8,5.3,2.1
		c0,0,36.9,31.3,38.6,36.3C85.3,76.6,28.3,70.3,53.4,60.9z"/>
	<path d="M39.5,19.5c-1.4-1.3-3.4-2.1-5.3-2.1c-4.3,0-7.8,3.5-7.8,7.8L26.1,85c0,1.7,0.6,3.5,1.8,5.1c0.4,0.4,1,0.8,1.3,1l2,1.2
		c0.6,0.2,1,0.6,1.6,0.6c5.1,1,9.4-2.9,9.2-7.8V54.2c0-3.7,4.2-5.9,7.3-4.1c5.3,3.1,7.6,9.4,4.1,10.8c-25.1,9.4,32,15.7,24.7-5.1
		C76.3,50.9,39.5,19.5,39.5,19.5z"/>
</g>
<path class="st1" d="M533.2,608.6C532.9,608.6,532.9,608.6,533.2,608.6c-0.3,0.3,0,0.6,0,0.6S533.5,608.9,533.2,608.6
	C533.5,608.6,533.2,608.6,533.2,608.6z"/>
</svg>
