<?xml version="1.0" encoding="utf-8"?>
<!-- Generator: Adobe Illustrator 23.0.1, SVG Export Plug-In . SVG Version: 6.00 Build 0)  -->
<svg version="1.1" id="Layer_1" xmlns="http://www.w3.org/2000/svg" xmlns:xlink="http://www.w3.org/1999/xlink" x="0px" y="0px"
	 viewBox="0 0 141.1 111" style="enable-background:new 0 0 141.1 111;" xml:space="preserve">
<style type="text/css">
	.st0{fill:none;stroke:#3499CC;stroke-width:10;stroke-miterlimit:10;}
	.st1{fill-rule:evenodd;clip-rule:evenodd;fill:#FFFFFF;filter:url(#Adobe_OpacityMaskFilter);}
	.st2{mask:url(#mask0_4_);}
	.st3{fill:#016699;}
	.st4{fill:#3499CC;}
	.st5{fill-rule:evenodd;clip-rule:evenodd;fill:#FFFFFF;filter:url(#Adobe_OpacityMaskFilter_1_);}
	.st6{mask:url(#mask0_3_);}
	.st7{fill:#33669A;}
</style>
<path class="st0" d="M104,105.6H37.1c-17.5,0-31.7-14.2-31.7-31.7V37.3c0-17.5,14.2-31.7,31.7-31.7H104c17.5,0,31.7,14.2,31.7,31.7
	v36.6C135.7,91.5,121.5,105.6,104,105.6z"/>
<defs>
	<filter id="Adobe_OpacityMaskFilter" filterUnits="userSpaceOnUse" x="20.4" y="32.9" width="64.7" height="60.1">
		<feColorMatrix  type="matrix" values="1 0 0 0 0  0 1 0 0 0  0 0 1 0 0  0 0 0 1 0"/>
	</filter>
</defs>
<mask maskUnits="userSpaceOnUse" x="20.4" y="32.9" width="64.7" height="60.1" id="mask0_4_">
	<path class="st1" d="M84.8,51.8c0.4-1,0.4-2.2-0.1-3.2l-6.4-13.4c-0.7-1.4-2.1-2.3-3.7-2.3H30.9c-1.6,0-3,0.9-3.7,2.3l-6.4,13.4
		c-0.7,1.4-0.5,2.9,0.4,4.1c0.1,0.2,0.3,0.3,0.4,0.5L45,78.8L36.5,90c-0.8,1-0.7,2.5,0.2,3.5l3.3,3.6c1.1,1.2,2.9,1.2,4,0l8.8-9.7
		l8.8,9.7c1.1,1.2,2.9,1.2,4,0l3.3-3.6c0.9-1,0.9-2.4,0.2-3.5l-8.5-11.2l23.4-25.6C84.3,52.8,84.6,52.3,84.8,51.8z M38,49.1
		l14.8,19.4l14.8-19.4H38z"/>
</mask>
<g class="st2">
	<path class="st3" d="M28.3,33l-7.5,15.6c-0.7,1.6-0.4,3.4,0.8,4.6l7.7,7.8c4.2,4.1,37,35.2,40.2,31.7l0.8-0.9l0,0L28.9,37.2
		c-1.3-1.8-0.1-4.3,2.1-4.3h-2.6C28.5,33,28.4,33,28.3,33z"/>
	<g>
		<path class="st4" d="M84.7,48.6c0.7,1.6,0.4,3.4-0.8,4.6c1.5-1.5,0.4-4.1-1.7-4.1h-59c-2.1,0-3.2,2.6-1.7,4.1
			c-1.2-1.2-1.5-3.1-0.8-4.6l6.4-13.4c0.7-1.4,2.1-2.3,3.7-2.3h43.7c1.6,0,3,0.9,3.7,2.3L84.7,48.6z"/>
	</g>
</g>
<defs>
	<filter id="Adobe_OpacityMaskFilter_1_" filterUnits="userSpaceOnUse" x="54.8" y="19" width="64.7" height="60.1">
		<feColorMatrix  type="matrix" values="1 0 0 0 0  0 1 0 0 0  0 0 1 0 0  0 0 0 1 0"/>
	</filter>
</defs>
<mask maskUnits="userSpaceOnUse" x="54.8" y="19" width="64.7" height="60.1" id="mask0_3_">
	<path class="st5" d="M55,60.1c-0.4,1-0.4,2.2,0.1,3.2l6.4,13.4c0.7,1.4,2.1,2.3,3.7,2.3l43.7,0c1.6,0,3-0.9,3.7-2.3l6.4-13.4
		c0.7-1.4,0.5-2.9-0.4-4.1c-0.1-0.2-0.3-0.3-0.4-0.5L94.9,33.1l8.5-11.2c0.8-1,0.7-2.5-0.2-3.5l-3.3-3.6c-1.1-1.2-2.9-1.2-4,0
		l-8.8,9.7l-8.8-9.7c-1.1-1.2-2.9-1.2-4,0L71,18.5c-0.9,1-0.9,2.4-0.2,3.5l8.5,11.2L56,58.7C55.5,59.2,55.2,59.6,55,60.1z
		 M101.9,62.8L87.1,43.4L72.3,62.8L101.9,62.8z"/>
</mask>
<g class="st6">
	<path class="st3" d="M111.6,78.9l7.5-15.6c0.7-1.6,0.4-3.4-0.8-4.6l-7.7-7.8c-4.2-4.1-37-35.2-40.2-31.7l-0.8,0.9l0,0l41.4,54.6
		c1.3,1.8,0.1,4.3-2.1,4.3l2.6,0C111.4,79,111.5,78.9,111.6,78.9z"/>
	<g>
		<path class="st4" d="M55.2,63.4c-0.7-1.6-0.4-3.4,0.8-4.6c-1.5,1.5-0.4,4.1,1.7,4.1l59,0c2.1,0,3.2-2.6,1.7-4.1
			c1.2,1.2,1.5,3.1,0.8,4.6l-6.4,13.4c-0.7,1.4-2.1,2.3-3.7,2.3l-43.7,0c-1.6,0-3-0.9-3.7-2.3L55.2,63.4z"/>
	</g>
</g>
<path class="st7" d="M84.6,48.4l-6.3-13.1c-0.7-1.5-2.2-2.4-3.9-2.4c2.2,0,3.5,2.5,2.1,4.3c0,0-17.7,18.3-20.6,21.5v0
	c-1.2,1.3-1.5,3.2-0.7,4.8l6.3,13.1c0.7,1.5,2.2,2.4,3.9,2.4c-2.2,0-3.5-2.5-2.1-4.3c0,0,17.7-18.3,20.6-21.5
	C85.1,51.9,85.4,50,84.6,48.4z"/>
</svg>
