<?xml version="1.0" encoding="utf-8"?>
<!-- Generator: Adobe Illustrator 23.0.1, SVG Export Plug-In . SVG Version: 6.00 Build 0)  -->
<svg version="1.1" id="Layer_1" xmlns="http://www.w3.org/2000/svg" xmlns:xlink="http://www.w3.org/1999/xlink" x="0px" y="0px"
	 viewBox="0 0 339.4 112.4" style="enable-background:new 0 0 339.4 112.4;" xml:space="preserve">
<style type="text/css">
	.st0{fill:#6D8EEE;}
	.st1{fill:#3499CC;}
	.st2{fill:#D9D8D7;}
	.st3{opacity:0.8;fill:#4899C3;}
	.st4{fill:#4899C3;}
	.st5{fill:#FFFFFF;}
</style>
<path class="st0" d="M489.8,608.6C489.5,608.6,489.5,608.6,489.8,608.6c-0.3,0.3,0,0.6,0,0.6S490.1,608.9,489.8,608.6
	C490.1,608.6,489.8,608.6,489.8,608.6z"/>
<path class="st1" d="M107.2,94.7h-8.8V18h19c6.6,0,11.5,1.5,14.9,4.4s5.1,7,5.1,12.2v20.1c0,5.3-1.7,9.3-5,12.2
	c-3.4,2.9-8.4,4.3-15,4.3h-10.2V94.7z M128.6,54.6V34.5c0-3-1-5.3-2.9-7S121,25,117.4,25h-10.2v39h10.2
	C124.9,64,128.6,60.9,128.6,54.6z M169,94.7h-8.8V18h19c6.6,0,11.5,1.5,14.9,4.4s5.1,7,5.1,12.2v16.5c0,8-3.7,13.1-11.1,15.3
	l15.5,28.3h-9.7l-14.7-27.1H169V94.7z M190.4,51.1V34.5c0-3-1-5.3-2.9-7s-4.7-2.5-8.3-2.5H169v35.4h10.2
	C186.7,60.5,190.4,57.4,190.4,51.1z M254.7,80v-6.5h8.8V80c0,5.3-1.7,9.3-5.2,12.2c-3.4,2.9-8.6,4.3-15.5,4.3s-12.1-1.4-15.6-4.3
	s-5.3-6.9-5.3-12.2V32.8c0-5.3,1.7-9.3,5.2-12.2c3.4-2.9,8.6-4.3,15.5-4.3s12.1,1.4,15.6,4.3s5.3,6.9,5.3,12.2V44h-8.8V32.8
	c0-6.3-4-9.4-12-9.4s-12,3.1-12,9.4V80c0,6.3,4,9.4,12,9.4C250.7,89.4,254.7,86.3,254.7,80z M308.3,94.7h-8.8V67.2L278.7,18h9.3
	l15.9,39.5L319.8,18h9.3l-20.8,49.3V94.7z"/>
<g>
	<path class="st2" d="M36.3,11.3l-0.1-0.1L36.3,11.3z"/>
	<path class="st3" d="M10.3,22.5c0,0.2,0,0.3,0,0.5l0,0l0,0l3,67.5c0.2,5.2,5,9.1,10.3,8.4c1.7-0.2,2.9-1.5,3-3.2l3.1-63.5
		L15.3,20.5C13.3,18.9,10.5,20.2,10.3,22.5z"/>
	<path class="st2" d="M10.4,21.4c-0.1,0.4-0.1,0.7-0.1,1.1l0,0C10.3,22.1,10.3,21.8,10.4,21.4z"/>
	<path class="st3" d="M73.2,67.6l-14.7-12c-10.1,2-19.9,4.1-21.5,5.1c-1.4,0.9-2,1.5-2.4,2.6c-0.2,0.5-0.3,1-0.3,1.5
		C34.1,76,60,72.1,70.7,72.7c0.5,0,1,0,1.5-0.1C74.3,72,75.1,69.2,73.2,67.6z"/>
	<path class="st4" d="M79,46.1L36.3,11.3l-0.1-0.1l0,0c-1.5-1.2-3.7-1.5-5.5-0.7L13.3,18c-1.5,0.7-2.6,1.9-2.9,3.5
		c-0.1,0.3-0.1,0.6-0.1,1c0.2-2.3,3-3.6,5-2l14.4,11.8l28.7,23.4l14.7,12c1.9,1.5,1.2,4.4-1,5.1c-0.1,0-0.1,0-0.2,0.1
		c2-0.4,3.6-1.8,4.1-3.7l4.7-17.8C81.2,49.3,80.5,47.4,79,46.1z"/>
	<path class="st5" d="M72,72.7c-0.2,0-0.3,0.1-0.5,0.1C71.7,72.8,71.8,72.8,72,72.7z"/>
	<path class="st5" d="M10.3,22.5L10.3,22.5c0,0.1,0,0.3,0,0.5l0,0C10.3,22.8,10.3,22.7,10.3,22.5z"/>
</g>
</svg>
