<?xml version="1.0" encoding="utf-8"?>
<!-- Generator: Adobe Illustrator 23.0.1, SVG Export Plug-In . SVG Version: 6.00 Build 0)  -->
<svg version="1.1" id="Layer_1" xmlns="http://www.w3.org/2000/svg" xmlns:xlink="http://www.w3.org/1999/xlink" x="0px" y="0px"
	 viewBox="0 0 521.1 521.8" style="enable-background:new 0 0 521.1 521.8;" xml:space="preserve">
<style type="text/css">
	.st0{fill:#6D8EEE;}
</style>
<title>alphabet</title>
<g>
	<path class="st0" d="M340.3,12.2H103.4c-51.7,0-92.8,41.1-92.8,92.8v320.8c0,47.2,38.3,86.4,86.4,86.4h82.8
		c181.9,0,329.7-148.1,329.7-329.7C509.7,87.8,433.9,12.2,340.3,12.2z M245.9,281.7c16.1-6.1,5.3-34.7-18.6-48.9
		c-14.2-8.1-33.1,1.7-33.1,18.6v140c0.8,22.2-18.6,40-41.9,35.6c-2.8,0-4.4-1.7-7.2-2.8l-8.9-5.3c-1.7-0.8-4.4-2.8-6.1-4.4
		c-5.3-7.2-8.1-15.3-8.1-23.1l0.8-271.9c0-19.7,16.1-35.6,35.6-35.6c8.9,0,17.8,3.6,24.2,9.7c0,0,167.5,142.5,175.6,165
		C391.1,353,131.7,324.4,245.9,281.7z"/>
	<path d="M182.5,93.6c-6.4-6.1-15.3-9.7-24.2-9.7c-19.4,0-35.6,15.8-35.6,35.6L122,391.4c0,7.8,2.8,15.8,8.1,23.1
		c1.7,1.7,4.4,3.6,6.1,4.4l8.9,5.3c2.8,1.1,4.4,2.8,7.2,2.8c23.3,4.4,42.8-13.3,41.9-35.6v-140c0-16.9,18.9-26.7,33.1-18.6
		c23.9,14.2,34.7,42.8,18.6,48.9c-114.2,42.8,145.3,71.4,112.2-23.1C350,236.1,182.5,93.6,182.5,93.6z"/>
</g>
</svg>
