<?xml version="1.0" encoding="utf-8"?>
<!-- Generator: Adobe Illustrator 23.0.1, SVG Export Plug-In . SVG Version: 6.00 Build 0)  -->
<svg version="1.1" id="Layer_1" xmlns="http://www.w3.org/2000/svg" xmlns:xlink="http://www.w3.org/1999/xlink" x="0px" y="0px"
	 viewBox="0 0 1189.3 639.8" style="enable-background:new 0 0 1189.3 639.8;" xml:space="preserve">
<style type="text/css">
	.st0{opacity:0.5;fill:#0D0E0F;}
	.st1{fill:#0D0E0F;}
	.st2{opacity:0.1;fill:#DEE8F5;}
	.st3{fill:#0065D4;}
	.st4{fill:#C1D8ED;}
	.st5{fill:#DEE8F5;}
	.st6{opacity:0.1;}
	.st7{fill:#6D8EEE;}
	.st8{opacity:0.5;fill:#6D8EEE;enable-background:new    ;}
	.st9{fill:#FFFFFF;fill-opacity:0;}
	.st10{fill:#292A2E;}
	.st11{opacity:0.2;fill:#6D8EEE;enable-background:new    ;}
	.st12{fill:#EEEEEE;}
	.st13{opacity:0.2;fill:#F4F4F4;}
	.st14{fill:#FFFFFF;}
	.st15{fill:none;stroke:#0C0C0C;stroke-width:0.75;stroke-linecap:round;stroke-linejoin:round;}
	.st16{fill:#0C0C0C;}
	.st17{opacity:0.2;fill:#DEE8F5;}
	.st18{fill:#94FFFD;}
	.st19{opacity:0.5;}
	.st20{fill:#55FFA1;}
	.st21{opacity:0.5;fill:#E7C9FF;enable-background:new    ;}
	.st22{opacity:0.2;}
</style>
<path class="st0" d="M1061.1,597.6h-56.2c7.1-5.7,11.7-14.5,11.7-24.3V31.1c0-17.2-13.9-31.1-31.1-31.1H200.6
	c-17.2,0-31.1,13.9-31.1,31.1v542.2c0,9.8,4.6,18.6,11.7,24.3h-53c-11.7,0-21.1,9.4-21.1,21.1c0,11.6,9.4,21.1,21.1,21.1h932.9
	c11.6,0,21.1-9.4,21.1-21.1C1082.2,607.1,1072.8,597.6,1061.1,597.6z"/>
<path class="st1" d="M202.5,21.2h781c7.6,0,13.8,6.2,13.8,13.8v533.8c0,7.6-6.2,13.8-13.8,13.8h-781c-7.6,0-13.8-6.2-13.8-13.8V35
	C188.8,27.4,194.9,21.2,202.5,21.2z"/>
<rect x="367" y="51" class="st2" width="605.4" height="41.6"/>
<ellipse class="st3" cx="943" cy="70.7" rx="15" ry="14.3"/>
<rect x="578" y="442.3" class="st4" width="146.9" height="10.5"/>
<rect x="638.8" y="491.8" class="st5" width="200.1" height="10.5"/>
<rect x="578.2" y="473.1" class="st4" width="153.2" height="10.5"/>
<rect x="407.1" y="516.6" class="st5" width="373.7" height="10.5"/>
<rect x="401.1" y="111.6" class="st5" width="146" height="10.5"/>
<rect x="407.1" y="361.9" class="st4" width="257" height="10.5"/>
<rect x="690.1" y="361.9" class="st4" width="123.4" height="10.5"/>
<rect x="579.1" y="386.8" class="st4" width="259.7" height="10.5"/>
<g>
	<g class="st6">
		<path class="st7" d="M783.4,344.9H416c-6.7,0-12-5.4-12-12V146.7c0-6.7,5.4-12,12-12h367.4c6.7,0,12,5.4,12,12v186.1
			C795.5,339.5,790.1,344.9,783.4,344.9z"/>
	</g>
	<g>
		<path id="gra5_b" class="st8" d="M446.9,176.9h7.2c1.1,0,1.9,0.9,1.9,1.9v136.6c0,1.1-0.9,1.9-1.9,1.9h-7.2
			c-1.1,0-1.9-0.9-1.9-1.9V178.8C445,177.7,445.8,176.9,446.9,176.9z"/>
		<path id="gra5_b-2" class="st7" d="M435.9,221h7.2c1.1,0,1.9,0.9,1.9,1.9v92.5c0,1.1-0.9,1.9-1.9,1.9h-7.2c-1.1,0-1.9-0.9-1.9-1.9
			V223C433.9,221.9,434.8,221,435.9,221z"/>
	</g>
	<g>
		<path id="gra5_b-3" class="st8" d="M535.3,299.6h7.2c1.1,0,1.9,0.9,1.9,1.9v13.9c0,1.1-0.9,1.9-1.9,1.9h-7.2
			c-1.1,0-1.9-0.9-1.9-1.9v-13.9C533.4,300.5,534.3,299.6,535.3,299.6z"/>
		<path id="gra5_b-4" class="st7" d="M524.3,213.1h7.2c1.1,0,1.9,0.9,1.9,1.9v100.4c0,1.1-0.9,1.9-1.9,1.9h-7.2
			c-1.1,0-1.9-0.9-1.9-1.9V215C522.3,214,523.2,213.1,524.3,213.1z"/>
	</g>
	<g>
		<path id="gra5_b-5" class="st8" d="M491.1,233.3h7.2c1.1,0,1.9,0.9,1.9,1.9v80.2c0,1.1-0.9,1.9-1.9,1.9h-7.2
			c-1.1,0-1.9-0.9-1.9-1.9v-80.2C489.2,234.2,490.1,233.3,491.1,233.3z"/>
		<path id="gra5_b-6" class="st7" d="M480.1,262.4h7.2c1.1,0,1.9,0.9,1.9,1.9v51.2c0,1.1-0.9,1.9-1.9,1.9h-7.2
			c-1.1,0-1.9-0.9-1.9-1.9v-51.2C478.1,263.2,479,262.4,480.1,262.4z"/>
	</g>
	<g>
		<path id="gra5_b-7" class="st8" d="M668,204.1h7.2c1.1,0,1.9,0.9,1.9,1.9v109.5c0,1.1-0.9,1.9-1.9,1.9H668c-1.1,0-1.9-0.9-1.9-1.9
			V206C666.1,204.9,666.9,204.1,668,204.1z"/>
		<path id="gra5_b-8" class="st7" d="M657,245.8h7.2c1.1,0,1.9,0.9,1.9,1.9v67.7c0,1.1-0.9,1.9-1.9,1.9H657c-1.1,0-1.9-0.9-1.9-1.9
			v-67.7C655,246.7,655.9,245.8,657,245.8z"/>
	</g>
	<g>
		<path id="gra5_b-9" class="st8" d="M579.6,221.7h7.2c1.1,0,1.9,0.9,1.9,1.9v91.8c0,1.1-0.9,1.9-1.9,1.9h-7.2
			c-1.1,0-1.9-0.9-1.9-1.9v-91.8C577.6,222.6,578.5,221.7,579.6,221.7z"/>
		<path id="gra5_b-10" class="st7" d="M568.5,232.6h7.2c1.1,0,1.9,0.9,1.9,1.9v80.9c0,1.1-0.9,1.9-1.9,1.9h-7.2
			c-1.1,0-1.9-0.9-1.9-1.9v-80.9C566.6,233.4,567.4,232.6,568.5,232.6z"/>
	</g>
	<g>
		<path id="gra5_b-11" class="st8" d="M623.8,176.9h7.2c1.1,0,1.9,0.9,1.9,1.9v136.6c0,1.1-0.9,1.9-1.9,1.9h-7.2
			c-1.1,0-1.9-0.9-1.9-1.9V178.8C621.8,177.7,622.7,176.9,623.8,176.9z"/>
		<path id="gra5_b-12" class="st7" d="M612.7,183.6h7.2c1.1,0,1.9,0.9,1.9,1.9v129.9c0,1.1-0.9,1.9-1.9,1.9h-7.2
			c-1.1,0-1.9-0.9-1.9-1.9V185.6C610.8,184.5,611.7,183.6,612.7,183.6z"/>
	</g>
	<g>
		<path id="gra5_b-13" class="st8" d="M712.2,176.9h7.2c1.1,0,1.9,0.9,1.9,1.9v136.6c0,1.1-0.9,1.9-1.9,1.9h-7.2
			c-1.1,0-1.9-0.9-1.9-1.9V178.8C710.3,177.7,711.2,176.9,712.2,176.9z"/>
		<path id="gra5_b-14" class="st7" d="M701.2,221h7.2c1.1,0,1.9,0.9,1.9,1.9v92.5c0,1.1-0.9,1.9-1.9,1.9h-7.2
			c-1.1,0-1.9-0.9-1.9-1.9V223C699.2,221.9,700.1,221,701.2,221z"/>
	</g>
	<g>
		<path id="gra5_b-15" class="st8" d="M756.5,233.3h7.2c1.1,0,1.9,0.9,1.9,1.9v80.2c0,1.1-0.9,1.9-1.9,1.9h-7.2
			c-1.1,0-1.9-0.9-1.9-1.9v-80.2C754.5,234.2,755.4,233.3,756.5,233.3z"/>
		<path id="gra5_b-16" class="st7" d="M745.4,262.4h7.2c1.1,0,1.9,0.9,1.9,1.9v51.2c0,1.1-0.9,1.9-1.9,1.9h-7.2
			c-1.1,0-1.9-0.9-1.9-1.9v-51.2C743.5,263.2,744.3,262.4,745.4,262.4z"/>
	</g>
</g>
<rect x="215" y="51" class="st2" width="149" height="41.6"/>
<circle id="gra7_p-2" class="st7" cx="825.4" cy="177.6" r="9.7"/>
<path class="st7" d="M953.1,180.4H840.2c-0.4,0-0.7-0.3-0.7-0.7s0.3-0.7,0.7-0.7h112.9c0.4,0,0.7,0.3,0.7,0.7
	S953.5,180.4,953.1,180.4z"/>
<path class="st8" d="M954.1,204.4H841.2c-0.4,0-0.7-0.3-0.7-0.7s0.3-0.7,0.7-0.7h112.9c0.4,0,0.7,0.3,0.7,0.7
	S954.5,204.4,954.1,204.4z"/>
<circle id="gra7_p-2_2_" class="st8" cx="826.4" cy="202.6" r="9.7"/>
<rect x="536.1" y="325.6" class="st5" width="127.9" height="10.5"/>
<g>
	<path class="st9" d="M463.3,443.6c0,12.3,7.8,23.3,19.4,27.4l-8,19.4c-25.8-9.7-38.9-38.6-29.2-64.4c7.3-19.5,26-32.4,46.8-32.4v21
		C476.3,414.6,463.3,427.6,463.3,443.6z"/>
	<path class="st10" d="M463.3,443.6c0,12.3,7.8,23.3,19.4,27.4l-8,19.4c-25.8-9.7-38.9-38.6-29.2-64.4c7.3-19.5,26-32.4,46.8-32.4
		v21C476.3,414.6,463.3,427.6,463.3,443.6z"/>
	<path class="st7" d="M542.3,443.6h-21c0-16-13-29-29-29v-21C519.9,393.6,542.3,416,542.3,443.6z"/>
	<path class="st8" d="M542.3,443.6c0,23.3-16.1,43.6-38.9,48.8l-3.6-20.7c12.7-3.4,21.5-14.9,21.5-28L542.3,443.6z"/>
	<path class="st11" d="M503.4,492.4c-9.6,2.2-19.6,1.5-28.7-2l8-19.4c5.5,1.9,11.5,2.2,17.2,0.7L503.4,492.4z"/>
</g>
<rect x="577" y="414.3" class="st4" width="146.9" height="10.5"/>
<rect x="415" y="58.8" class="st12" width="149" height="24.2"/>
<path class="st13" d="M755.7,422.6h80.2c1.9,0,3.5,1.5,3.5,3.5v39.8c0,1.9-1.5,3.5-3.5,3.5h-80.2c-1.9,0-3.5-1.5-3.5-3.5v-39.8
	C752.2,424.2,753.8,422.6,755.7,422.6z"/>
<g>
	<path id="gra19_b" class="st14" d="M800.7,446.2h5.6c0.3,0,0.6,0.3,0.6,0.6v12.3c0,0.3-0.3,0.6-0.6,0.6h-5.6
		c-0.3,0-0.6-0.3-0.6-0.6v-12.3C800.1,446.4,800.3,446.2,800.7,446.2z"/>
	<path id="gra19_b-2" class="st14" d="M814.1,433.2h5.6c0.3,0,0.6,0.3,0.6,0.6V459c0,0.3-0.3,0.6-0.6,0.6h-5.6
		c-0.3,0-0.6-0.3-0.6-0.6v-25.2C813.5,433.5,813.7,433.2,814.1,433.2z"/>
	<path id="gra19_b-3" class="st14" d="M827.5,443.1h5.6c0.3,0,0.6,0.3,0.6,0.6v15.4c0,0.3-0.3,0.6-0.6,0.6h-5.6
		c-0.3,0-0.6-0.3-0.6-0.6v-15.4C826.8,443.4,827.1,443.1,827.5,443.1z"/>
	<path id="gra19_b-4" class="st14" d="M760.5,446.2h5.6c0.3,0,0.6,0.3,0.6,0.6v12.3c0,0.3-0.3,0.6-0.6,0.6h-5.6
		c-0.3,0-0.6-0.3-0.6-0.6v-12.3C759.9,446.4,760.2,446.2,760.5,446.2z"/>
	<path id="gra19_b-5" class="st14" d="M773.9,433.2h5.6c0.3,0,0.6,0.3,0.6,0.6V459c0,0.3-0.3,0.6-0.6,0.6h-5.6
		c-0.3,0-0.6-0.3-0.6-0.6v-25.2C773.3,433.5,773.6,433.2,773.9,433.2z"/>
	<path id="gra19_b-6" class="st14" d="M787.3,443.1h5.6c0.3,0,0.6,0.3,0.6,0.6v15.4c0,0.3-0.3,0.6-0.6,0.6h-5.6
		c-0.3,0-0.6-0.3-0.6-0.6v-15.4C786.7,443.4,786.9,443.1,787.3,443.1z"/>
</g>
<line class="st15" x1="859" y1="362" x2="858.7" y2="356.3"/>
<path class="st16" d="M906,354.2L906,354.2l-3.7-1.7c-0.1,0-0.1-0.1-0.1-0.1c0-0.1,0.1-0.1,0.1-0.1l3.7,1.7c0.1,0,0.1,0.1,0.1,0.1
	C906.1,354.2,906,354.2,906,354.2L906,354.2z"/>
<rect x="218" y="147" class="st17" width="145" height="34"/>
<ellipse class="st18" cx="234" cy="162.6" rx="9" ry="9.4"/>
<rect x="250.2" y="159" class="st4" width="97.8" height="10.3"/>
<g class="st19">
	<rect x="218" y="225" class="st5" width="145" height="34"/>
	<ellipse class="st20" cx="234" cy="240.6" rx="9" ry="9.4"/>
	<rect x="250.2" y="237" class="st4" width="97.8" height="10.3"/>
</g>
<rect x="218" y="186" class="st17" width="145" height="34"/>
<ellipse class="st21" cx="234" cy="201.6" rx="9" ry="9.4"/>
<rect x="250.2" y="198" class="st4" width="97.8" height="10.3"/>
<g class="st22">
	<rect x="218" y="109" class="st5" width="145" height="34"/>
	<ellipse class="st20" cx="234" cy="124.6" rx="9" ry="9.4"/>
	<rect x="250.2" y="121" class="st4" width="97.8" height="10.3"/>
</g>
<rect x="240" y="524" class="st5" width="80.8" height="13.5"/>
<g class="st19">
	<path class="st7" d="M283.6,73.7h-1.8v4.3h-1.7c-0.7,0-1.3-0.6-1.3-1.3V66h4.8c3,0,4.4,1.7,4.4,3.9C288,71.9,286.6,73.7,283.6,73.7
		z M283.3,71.4c1.2,0,1.7-0.6,1.7-1.5s-0.5-1.5-1.7-1.5h-1.6v3C281.7,71.4,283.3,71.4,283.3,71.4z"/>
	<path class="st7" d="M294.4,66c3,0,4.4,1.7,4.4,3.8c0,1.5-0.8,2.9-2.7,3.5L299,78h-3.3l-2.5-4.5h-0.7V78h-1.3
		c-0.9,0-1.6-0.7-1.6-1.6V66L294.4,66L294.4,66z M294.3,68.5h-1.8v3h1.8c1.1,0,1.6-0.6,1.6-1.5C295.9,69,295.4,68.5,294.3,68.5z"/>
	<path class="st7" d="M306.2,65.9c2.9,0,5,1.6,5.7,4.2h-3.2c-0.5-1-1.4-1.5-2.5-1.5c-1.8,0-3,1.3-3,3.5s1.2,3.5,3,3.5
		c0.8,0,1.4-0.2,1.9-0.7c0.6-0.5,1.3-0.8,2.1-0.8h1.7c-0.7,2.6-2.8,4.2-5.7,4.2c-3.6,0-6-2.5-6-6.1S302.7,65.9,306.2,65.9z"/>
	<path class="st7" d="M312.8,66h3.3l2.3,5l2.3-5h3.3l-4.2,8.1v4h-1.1c-1,0-1.8-0.8-1.8-1.8v-2.2L312.8,66z"/>
</g>
<g>
	<path class="st7" d="M267.5,64.7h-7.1c-1.5,0-2.8,1.2-2.8,2.8v9.6c0,1.4,1.1,2.6,2.6,2.6h2.5c5.5,0,9.9-4.4,9.9-9.9
		C272.6,66.9,270.3,64.7,267.5,64.7z M264.7,72.8c0.5-0.2,0.2-1-0.6-1.5c-0.4-0.2-1,0-1,0.6v4.2c0,0.7-0.6,1.2-1.3,1.1
		c-0.1,0-0.1-0.1-0.2-0.1l-0.3-0.2c0,0-0.1-0.1-0.2-0.1c-0.2-0.2-0.2-0.5-0.2-0.7l0-8.2c0-0.6,0.5-1.1,1.1-1.1
		c0.3,0,0.5,0.1,0.7,0.3c0,0,5,4.3,5.3,4.9C269,74.9,261.2,74,264.7,72.8z"/>
	<path d="M262.8,67.1c-0.2-0.2-0.5-0.3-0.7-0.3c-0.6,0-1.1,0.5-1.1,1.1l0,8.2c0,0.2,0.1,0.5,0.2,0.7c0,0.1,0.1,0.1,0.2,0.1l0.3,0.2
		c0.1,0,0.1,0.1,0.2,0.1c0.7,0.1,1.3-0.4,1.3-1.1v-4.2c0-0.5,0.6-0.8,1-0.6c0.7,0.4,1,1.3,0.6,1.5c-3.4,1.3,4.4,2.1,3.4-0.7
		C267.8,71.4,262.8,67.1,262.8,67.1z"/>
</g>
</svg>
